<svg width="22" height="25" viewBox="0 0 22 25" fill="none" xmlns="http://www.w3.org/2000/svg">
<g clip-path="url(#clip0_1_332)">
<path d="M6.93848 15.4736L5.9668 17.7295C5.9082 17.876 5.7666 17.9688 5.61523 17.9688H1.95312C1.30615 17.9688 0.78125 18.4937 0.78125 19.1406C0.78125 19.7876 1.30615 20.3125 1.95312 20.3125H5.61523C6.70801 20.3125 7.69629 19.6655 8.12988 18.6963L8.78906 17.1143L8.3252 16.8335C7.74414 16.4795 7.28516 16.0107 6.93848 15.4736ZM14.0625 4.6875C15.3564 4.6875 16.4062 3.6377 16.4062 2.34375C16.4062 1.0498 15.3564 0 14.0625 0C12.7686 0 11.7188 1.0498 11.7188 2.34375C11.7188 3.6377 12.7686 4.6875 14.0625 4.6875ZM19.9219 11.7432L17.5596 11.7371C17.3887 11.7371 17.2361 11.6272 17.1873 11.4624L16.5095 9.21631C16.0579 7.74512 14.8494 6.61621 13.3416 6.28027L9.52148 5.41504C9.2041 5.3418 8.84277 5.30762 8.56934 5.30762C7.62842 5.30762 6.7085 5.61992 5.94629 6.20898L3.58301 8.03223C3.28467 8.26172 3.12891 8.60352 3.12891 8.95508C3.12891 9.56299 3.61172 10.1289 4.2998 10.1289C4.55166 10.1289 4.80518 10.0484 5.01709 9.88247L7.37891 8.06362C7.72539 7.79463 8.14697 7.65508 8.57422 7.65508C8.71909 7.65508 8.8647 7.6711 9.00835 7.70353L9.73633 7.86133L8.00781 12.1289C7.87109 12.4658 7.80762 12.8125 7.80762 13.1543C7.80762 14.0879 8.28564 14.9834 9.12939 15.4971L13.2188 17.9629C13.3396 18.0354 13.4107 18.1655 13.4107 18.3014C13.4107 18.337 13.4059 18.373 13.3957 18.4084L11.7676 23.5059C11.7371 23.6132 11.7225 23.7214 11.7225 23.8279C11.7236 24.2139 12.0166 25 12.8955 25C13.4082 25 13.8779 24.6643 14.0244 24.1514L15.6479 19.0488C15.7199 18.7997 15.7545 18.5469 15.7545 18.2964C15.7545 17.3579 15.267 16.46 14.4332 15.9541L11.9043 14.4287L13.9551 9.31641C14.0894 9.49341 14.1992 9.68262 14.2664 9.90234L14.95 12.1484C15.2979 13.3018 16.3479 14.083 17.5564 14.083L19.9187 14.0952C20.5657 14.0952 21.0964 13.5703 21.0964 12.9233C21.0937 12.2754 20.5762 11.748 19.9219 11.7432Z" fill="#5051F9"/>
</g>
<defs>
<clipPath id="clip0_1_332">
<rect width="21.875" height="25" fill="white"/>
</clipPath>
</defs>
</svg>
