<svg width="27" height="27" viewBox="0 0 27 27" fill="none" xmlns="http://www.w3.org/2000/svg">
<path d="M13.5 26C13.5 26 9.65848 25.4565 7.21807 25.4565C5.62167 25.4565 3.45307 25.6891 2.14399 25.8499C1.53958 25.9242 1 25.4548 1 24.8458V5.98886C1 5.59822 1.22739 5.24332 1.59372 5.10768C2.11442 4.91489 2.91417 4.66008 3.7319 4.55754M13.5 26C13.5 26 17.2138 25.4565 19.6542 25.4565C21.2667 25.4565 23.5188 25.6938 24.8612 25.8547C25.464 25.927 26 25.4582 26 24.8511V5.95948C26 5.58404 25.7891 5.24011 25.4386 5.10554C24.9855 4.93158 24.2961 4.71118 23.5128 4.61295M13.5 26V22.7347M13.5 22.7347C13.5 22.7347 10.244 22.1957 8.29167 22.1957C7.16698 22.1957 5.78251 22.3749 4.8108 22.5269C4.18548 22.6247 3.60833 22.1432 3.61278 21.5103L3.7319 4.55754M13.5 22.7347C13.5 22.7347 16.586 22.1957 18.5383 22.1957C19.6908 22.1957 21.1752 22.4032 22.1982 22.5732C22.82 22.6766 23.3996 22.2038 23.4037 21.5735L23.5128 4.61295M13.5 22.7347V1.54348M3.7319 4.55754V2.37688C3.7319 1.89412 4.07574 1.48104 4.55258 1.40562C5.57065 1.24461 7.32909 1 8.61595 1C10.5341 1 13.5 1.54348 13.5 1.54348M23.5128 4.61295V2.38059C23.5128 1.89618 23.1666 1.48219 22.6879 1.40817C21.6468 1.24721 19.8321 1 18.5064 1C16.5407 1 13.5 1.54348 13.5 1.54348" stroke="#5051F9" stroke-linecap="round" stroke-linejoin="round"/>
</svg>
