<svg width="25" height="20" viewBox="0 0 25 20" fill="none" xmlns="http://www.w3.org/2000/svg">
<g clip-path="url(#clip0_24609_4)">
<path d="M1.875 13.125H11.25V7.1875C11.25 5.98047 12.2305 5 13.4375 5H20.3125C22.9023 5 25 7.09766 25 9.6875V18.125C25 18.6445 24.582 19.0625 24.0625 19.0625C23.543 19.0625 23.125 18.6445 23.125 18.125V15H1.875V17.8125C1.875 18.332 1.45508 18.75 0.9375 18.75C0.419922 18.75 0 18.332 0 17.8125V2.1875C0 1.66992 0.419922 1.25 0.9375 1.25C1.45508 1.25 1.875 1.66992 1.875 2.1875V13.125ZM20.3125 6.875H13.4375C13.2656 6.875 13.125 7.01562 13.125 7.1875V13.125H23.125V9.6875C23.125 8.13281 21.8672 6.875 20.3125 6.875ZM10 8.4375C10 10.3359 8.46094 11.875 6.5625 11.875C4.66406 11.875 3.125 10.3359 3.125 8.4375C3.125 6.53906 4.66406 5 6.5625 5C8.46094 5 10 6.53906 10 8.4375ZM6.5625 6.875C5.69922 6.875 5 7.57422 5 8.4375C5 9.30078 5.69922 10 6.5625 10C7.42578 10 8.125 9.30078 8.125 8.4375C8.125 7.57422 7.42578 6.875 6.5625 6.875Z" fill="#5051F9" stroke="#5051F9" stroke-width="0.1"/>
</g>
<defs>
<clipPath id="clip0_24609_4">
<rect width="25" height="20" fill="white"/>
</clipPath>
</defs>
</svg>
